<?xml version="1.0" encoding="UTF-8"?>
<svg width="24px" height="24px" viewBox="0 0 24 24" version="1.1" xmlns="http://www.w3.org/2000/svg" xmlns:xlink="http://www.w3.org/1999/xlink">
    <g id="Page-1" stroke="none" stroke-width="1" fill="none" fill-rule="evenodd">
        <g id="docx-icon" fill="#1976d2" fill-rule="nonzero">
            <path d="M21,7 L14,0 L3.5,0 C2.119,0 1,1.119 1,2.5 L1,21.5 C1,22.881 2.119,24 3.5,24 L20.5,24 C21.881,24 23,22.881 23,21.5 L23,9 L21,7 Z M14,2.414 L20.586,9 L14,9 L14,2.414 Z M21,21.5 C21,21.776 20.776,22 20.5,22 L3.5,22 C3.224,22 3,21.776 3,21.5 L3,2.5 C3,2.224 3.224,2 3.5,2 L12,2 L12,9 C12,10.105 12.895,11 14,11 L21,11 L21,21.5 Z" id="Shape"></path>
            <path d="M6,15 L6,19 L7.5,19 L9,15 L7.5,15 L6.75,17.5 L6,15 Z" id="Path"></path>
            <path d="M11,15 L9.5,19 L11,19 L11.75,16.5 L12.5,19 L14,19 L12.5,15 Z" id="Path"></path>
            <path d="M14,15 L14,19 L16.5,19 C17.328,19 18,18.328 18,17.5 L18,16.5 C18,15.672 17.328,15 16.5,15 L14,15 Z M16.5,17.5 L15.5,17.5 L15.5,16.5 L16.5,16.5 L16.5,17.5 Z" id="Combined-Shape"></path>
        </g>
    </g>
</svg>
